# xmcd CD database file
#
# Track frame offsets:
#	180
#	11836
#	23068
#	36891
#	47338
#	58468
#	69315
#	80836
#	92324
#	102895
#	113235
#	125793
#	138365
#	149524
#
# Disc length: 2187 seconds
#
# Revision: 0
# Processed by: cddbd v1.5.1PL0 Copyright (c) Steve Scherf et al.
# Submitted via: CDex 1.51
#
DISCID=c308890e
DTITLE=Patsy Cline - Walkin' After Midnight - The Original Sessions, Vol. 1
DYEAR=2003
DGENRE=Country
TTITLE0=Walkin' After Midnight
TTITLE1=Hidin' Out
TTITLE2=A Church, A Courtroom and Then Goodbye
TTITLE3=I Love You Honey
TTITLE4=I Cried All The Way To The Alter
TTITLE5=I Don't Wanta
TTITLE6=I've Loved and Lost Again
TTITLE7=Dear God (I Go To Church On Sunday)
TTITLE8=He Will Do For You
TTITLE9=Pick Me Up On Your Way Down
TTITLE10=A Poor Man's Roses
TTITLE11=Fingerprints
TTITLE12=A Stranger In My Arms
TTITLE13=Then You'll Know
EXTD=YEAR: 2003
EXTT0=
EXTT1=
EXTT2=
EXTT3=
EXTT4=
EXTT5=
EXTT6=
EXTT7=
EXTT8=
EXTT9=
EXTT10=
EXTT11=
EXTT12=
EXTT13=
PLAYORDER=
